<svg xmlns="http://www.w3.org/2000/svg" viewBox="0 0 310 330" xml:space="preserve"><path fill="#001F54" d="M282.161 235.05c-.55 1.027-1.102 2.054-2.251 3.424-6.507 4.813-12.538 3.85-18.66.816-2.608-1.292-5.293-2.43-8.176-3.9-2.34-1.238-4.472-2.163-6.55-3.198-17.627-8.78-36.435-14.243-55.735-16.932-24.715-3.443-49.606-3.807-74.352 1.268-20.832 4.272-41.146 9.815-59.96 20.81-8.031 5.173-15.89 9.586-25.536 5.345-.973-1.313-1.945-2.626-2.834-4.679-.345-7.31 1.47-12.63 7.718-16.003 2.952-1.595 5.487-3.964 8.529-6.11 5.699-3.688 11.326-6.929 16.418-10.861 19.157-14.797 35.392-32.304 48.665-52.623 11.223-17.183 19.86-35.483 25.834-55.102 5.352-17.58 8.014-35.565 8.775-54.307.086-3.587-.247-6.805.24-9.893.498-3.16 1.184-6.605 2.905-9.178 2.226-3.329 10.45-4.274 14.693-2.409 4.697 2.064 5.835 6.471 6.464 10.874.536 3.75.39 7.597.403 11.865.734 10.34 1.194 20.277 2.572 30.084 3.168 22.546 11.586 43.37 22.343 63.24 11.852 21.893 27.395 41.01 46.106 57.361 8.023 7.012 17.105 12.81 26.001 19.38 1.674 1.02 2.986 1.98 4.444 2.593 8.055 3.39 13.54 8.415 11.944 18.135m-94.985-64.757c-13.042-18.876-23.175-39.281-31.3-61.97-11.088 33.197-27.793 61.39-50.76 87.068 34.61-6.855 67.977-7.043 101.6-.256a6416 6416 0 0 1-19.54-24.842"/><path fill="#FF4B4B" d="M282.48 234.926c1.277-9.596-4.208-14.621-12.263-18.011-1.458-.613-2.77-1.574-4.241-2.936 10.288-25.007 12.756-50.17 7.104-76.175-10.773-49.561-55.046-89.58-104.187-94.01-.155-3.805-.009-7.652-.545-11.402-.63-4.403-1.767-8.81-6.464-10.874-4.243-1.865-12.467-.92-14.693 2.409-1.721 2.573-2.407 6.018-2.905 9.178-.487 3.088-.154 6.306-.69 9.827-36.719 4.254-66.401 20.3-87.511 49.962-27.348 38.428-31.186 79.817-12.05 123.125-2.723 2.018-5.258 4.387-8.21 5.982-6.247 3.374-8.063 8.692-7.76 15.687-4.877-10.117-11.003-20.261-14.16-31.258C-11.59 117.628 45.82 36.06 125.886 20.844c81.23-15.438 157.023 35.934 172.584 117.488 6.45 33.803 1.122 66.192-15.99 96.59m-251.614 8.14c9.72 3.862 17.58-.55 25.734-5.412 32.86 40.297 74.515 55.798 125.009 45.432 29.931-6.146 53.411-23.13 71.698-47.429 2.65 1.208 5.335 2.345 7.942 3.637 6.123 3.034 12.154 3.997 18.412-.645-.163 1.162-.445 2.653-1.221 3.812-33.31 49.726-79.925 72.912-139.492 67.614-44.648-3.972-79.545-26.064-105.532-62.406-.962-1.346-1.753-2.814-2.55-4.603"/></svg>