<svg xmlns="http://www.w3.org/2000/svg" viewBox="0 0 1335 327" xml:space="preserve"><path fill="#fff" d="M282.161 235.05c-.55 1.027-1.102 2.054-2.251 3.424-6.507 4.813-12.538 3.85-18.66.816-2.608-1.292-5.293-2.43-8.176-3.9-2.34-1.238-4.472-2.163-6.55-3.198-17.627-8.78-36.435-14.243-55.735-16.932-24.715-3.443-49.606-3.807-74.352 1.268-20.832 4.272-41.146 9.815-59.96 20.81-8.031 5.173-15.89 9.586-25.536 5.345-.973-1.313-1.945-2.626-2.834-4.679-.345-7.31 1.47-12.63 7.718-16.003 2.952-1.595 5.487-3.964 8.529-6.11 5.699-3.688 11.326-6.929 16.418-10.861 19.157-14.797 35.392-32.304 48.665-52.623 11.223-17.183 19.86-35.483 25.834-55.102 5.352-17.58 8.014-35.565 8.775-54.307.086-3.587-.247-6.805.24-9.893.498-3.16 1.184-6.605 2.905-9.178 2.226-3.329 10.45-4.274 14.693-2.409 4.697 2.064 5.835 6.471 6.464 10.874.536 3.75.39 7.597.403 11.865.734 10.34 1.194 20.277 2.572 30.084 3.168 22.546 11.586 43.37 22.343 63.24 11.852 21.893 27.395 41.01 46.106 57.361 8.023 7.012 17.105 12.81 26.001 19.38 1.674 1.02 2.986 1.98 4.444 2.593 8.055 3.39 13.54 8.415 11.944 18.135m-94.985-64.757c-13.042-18.876-23.175-39.281-31.3-61.97-11.088 33.197-27.793 61.39-50.76 87.068 34.61-6.855 67.977-7.043 101.6-.256a6416 6416 0 0 1-19.54-24.842"/><path fill="#fff" d="M365.502 134.456c14.529-26.686 33.814-48.073 62.581-58.69 22.716-8.385 46.385-10.446 69.55-2.296 27.636 9.723 42.58 30.547 46.03 59.29 6.071 50.6-27.84 107.08-75.413 124.383-28.89 10.508-58.025 10.86-85.094-6.126-22.215-13.94-31.92-34.908-31.27-60.925.485-19.419 4.654-37.92 13.616-55.636M478.379 234.87c4.469-6.381 9.684-12.372 13.269-19.216 11.494-21.945 14.403-45.742 13.643-70.164-.463-14.856-3.602-29.015-11.29-41.908-10.452-17.525-28.032-25.368-48.018-21.774-17.138 3.082-28.906 13.467-38.027 27.52-11.088 17.085-15.45 36.246-16.734 56.218-1.06 16.507-.741 32.994 4.815 48.847 5.664 16.157 14.63 29.865 31.854 35.275 19.49 6.122 35.914-.45 50.488-14.798m-195.899.056c1.277-9.596-4.208-14.621-12.263-18.011-1.458-.613-2.77-1.574-4.241-2.936 10.288-25.007 12.756-50.17 7.104-76.175-10.773-49.561-55.046-89.58-104.187-94.01-.155-3.805-.009-7.652-.545-11.402-.63-4.403-1.767-8.81-6.464-10.874-4.243-1.865-12.467-.92-14.693 2.409-1.721 2.573-2.407 6.018-2.905 9.178-.487 3.088-.154 6.306-.69 9.827-36.719 4.254-66.401 20.3-87.511 49.962-27.348 38.428-31.186 79.817-12.05 123.125-2.723 2.018-5.258 4.387-8.21 5.982-6.247 3.374-8.063 8.692-7.76 15.687-4.877-10.117-11.003-20.261-14.16-31.258C-11.59 117.628 45.82 36.06 125.886 20.844c81.23-15.438 157.023 35.934 172.584 117.488 6.45 33.803 1.122 66.192-15.99 96.594"/><path fill="#fff" d="M778.036 123.838c22.884-1.238 37.806 15.142 39.888 38.862 3.231 36.811-18.182 75.348-50.866 92.12-13.49 6.922-27.783 9.714-42.574 5.59-15.614-4.353-24.372-15.619-26.167-31.32-4.166-36.43 14.514-78.442 48.287-96.757 9.645-5.23 19.914-8.27 31.432-8.495m-39.148 114.616c6.368 14.079 17.198 15.668 26.496 3.419 3.865-5.092 7.04-10.954 9.375-16.917 6.798-17.366 8.385-35.631 6.847-54.034-.713-8.52-2.23-17.282-5.244-25.23-4.452-11.738-15.15-13.291-23.583-3.988-3.515 3.878-6.445 8.513-8.722 13.246-6.581 13.679-9.13 28.43-9.887 43.45-.672 13.308-.573 26.623 4.718 40.054m-93.275-110.799c10.409 1.226 19.953.872 28.616-5.409 1.649-1.195 5.912-.997 7.433.325 2.834 2.464.143 5.184-1.815 7.147-12.58 12.614-25.148 25.242-37.905 37.676-21.682 21.131-43.501 42.122-65.525 63.426.939.048 2.017.365 2.937.11 11.52-3.202 22.298-.036 33.143 3.468 9.923 3.206 19.985 5.99 30.022 8.828 1.547.438 3.302.317 4.944.206 9.038-.609 16.312-6 8.897-17.205-.092-.138-.191-.273-.27-.42-2.417-4.444-3.892-9.034-.548-13.59 2.764-3.766 6.92-4.43 11.226-3.774 5.528.843 8.99 4.337 10.337 9.596 2.073 8.09.082 15.648-4.503 22.333-12.53 18.269-30.395 25.746-51.888 22.767-15.27-2.117-30.213-6.531-45.362-9.629-8.997-1.84-17.909-2.189-25.497 4.596-1.055.943-2.715 1.797-4.036 1.718-2.117-.127-4.859-.489-6.043-1.864-.829-.963-.182-4.408.977-5.67 7.42-8.09 14.94-16.112 22.84-23.73 28.278-27.27 56.723-54.368 85.092-81.544.922-.884 1.707-1.912 2.64-2.968-.586-.186-.963-.45-1.18-.354-14.989 6.612-30.277 4.62-45.637 1.75-3.077-.574-6.295-.85-9.408-.646-3.601.234-6.553 2.082-6.618 6.122-.063 3.84 2.592 5.33 6.138 5.912 6.53 1.07 8.904 3.541 8.395 8.289-.526 4.898-4.58 7.797-10.58 7.565-10.325-.4-18.734-12.642-16.974-24.71 1.797-12.32 12.878-23.066 27.141-23.774 11.5-.57 23.124 1.284 34.686 2.16 2.64.2 5.25.803 8.325 1.293m298.618 113.892c-6.9-44.065 20.848-96.965 59.568-114.132 9.118-4.042 18.632-5.972 28.633-5.373 17.436 1.044 25.893 13.275 20.714 30.05-2.822 9.138-8.535 16.563-16.327 21.46-12.914 8.115-26.511 15.156-39.932 22.445-4.516 2.453-9.462 4.11-14.02 6.495-1.52.796-3.407 2.686-3.477 4.154-.355 7.432-.87 14.976.025 22.316.945 7.757 5.879 11.782 13.586 10.761 6.753-.893 13.715-2.933 19.723-6.1 9.515-5.014 18.312-11.392 27.797-17.438l5.252 6.951c-2.933 2.433-5.634 4.798-8.463 6.998-15.165 11.797-30.794 22.872-49.663 27.997-5.57 1.513-11.436 2.441-17.2 2.63-14.57.479-21.81-4.99-26.216-19.214m41.873-70.807-4.662 22.801c14.56-8.03 27.557-15.933 36.062-29.328 3.789-5.967 5.434-12.444 3.589-19.494-2.282-8.717-10.752-11.92-17.759-6.234-3.39 2.751-6.483 6.408-8.416 10.298-3.38 6.799-5.76 14.094-8.814 21.957m-88.044 63.406c4.45-2.985 8.663-5.674 12.681-8.63 4.018-2.955 7.84-6.178 12.134-9.591l6.475 7.226c-17.425 14.264-34.193 29.015-55.935 36.002-4.681 1.504-9.746 2.221-14.675 2.457-7.963.38-12.31-3.501-13.793-11.384-2.19-11.643.628-22.82 3.358-33.964 5.493-22.423 11.12-44.812 16.684-67.217.268-1.077.468-2.171.776-3.615h-25.33l2.736-11.443h25.21c2.52-9.669 5.333-19.195 7.387-28.882 1.049-4.95 3.318-7.124 8.212-8.264 9.35-2.178 18.512-5.167 28.864-8.139l-11.333 44.587h29.337l-2.195 11.633c-8.697 0-17.166-.124-25.626.114-1.523.042-4.058 1.303-4.35 2.45a5474 5474 0 0 0-18.464 75.163c-.757 3.178-.579 6.635-.474 9.95.18 5.684 3.163 7.928 8.568 6.182 3.282-1.06 6.297-2.944 9.753-4.635"/><path fill="#fff" d="M30.866 243.062c9.72 3.862 17.58-.55 25.734-5.412 32.86 40.297 74.515 55.798 125.009 45.432 29.931-6.146 53.411-23.13 71.698-47.429 2.65 1.208 5.335 2.345 7.942 3.637 6.123 3.034 12.154 3.997 18.412-.645-.163 1.162-.445 2.653-1.221 3.812-33.31 49.726-79.925 72.912-139.492 67.614-44.648-3.972-79.545-26.064-105.532-62.406-.962-1.346-1.753-2.814-2.55-4.603"/><path fill="#fff" d="M1155.502 146.533c-4.61-2.403-8.779-4.873-13.19-6.786-7.41-3.213-14.027-1.821-19.458 4.139-2.44 2.678-4.635 5.739-6.27 8.966-10.532 20.8-15.234 42.877-13.85 66.187.128 2.147.536 4.306 1.07 6.393 3.205 12.491 11.13 17.477 23.828 15.167 12.255-2.23 22.78-8.062 32.567-15.465 1.722-1.303 3.405-2.659 5.579-4.36.929 2.489 2 4.673 2.495 6.98.239 1.118-.199 2.985-1.023 3.636-15.759 12.457-32.179 24.032-52.404 27.677-7.494 1.35-15.678 1.135-23.18-.298-13.634-2.604-22.118-13.084-23.642-26.864-4.211-38.088 22.228-86.707 56.434-103.619 13.287-6.57 27.317-8.375 41.76-5.199 9.48 2.084 14.688 8.304 14.024 15.483-.732 7.913-7.695 12.65-16.41 10.902-2.74-.55-5.336-1.817-8.33-2.939"/><path fill="#fff" d="M1217.028 70.008c0-4.329-.299-8.195.164-11.969.162-1.315 2.186-3.413 3.392-3.435 13.15-.248 26.308-.131 39.463-.168 4.604-.013 3.088 3.415 3.213 5.747.127 2.366.788 5.249-3.316 5.199-7.992-.097-15.986-.024-23.979-.022h-5.728v16.76c8.624 0 17.234.223 25.823-.094 4.262-.157 5.352 1.328 5.406 5.397.055 4.238-1.397 5.464-5.48 5.34-8.455-.254-16.924-.076-25.721-.076v17.295c9.338 0 18.773.2 28.193-.091 4.232-.131 5.875.836 5.77 5.453-.094 4.242-1.028 5.845-5.579 5.729-11.982-.304-23.98-.271-35.964-.013-4.315.093-5.827-1.111-5.752-5.595.248-14.983.095-29.972.095-45.457m103.943 12.072c-3.842 11.587-7.631 22.777-11.247 34.023-1.125 3.498-2.958 5.072-6.853 4.94-12.165-.414-10.049 1.74-13.997-10.064a27560 27560 0 0 1-17.018-51.03c-1.676-5.043-1.345-5.05 3.775-5.592 5.75-.607 8.576 1.242 10.231 7.068 3.628 12.768 8.093 25.299 12.24 37.918.499 1.516 1.147 2.982 2.135 5.529 5.136-15.643 9.92-30.217 14.708-44.789 1.63-4.963 8.453-7.893 12.982-5.272.79.457 1.057 2.883.674 4.123-2.36 7.634-4.978 15.189-7.63 23.146"/></svg>